<svg width="200" height="200" viewBox="0 0 200 200" xmlns="http://www.w3.org/2000/svg">
  <!-- 非洲灰鹦鹉 - 特点：灰色身体，红色尾巴，智商很高 -->
  
  <!-- 身体 -->
  <ellipse cx="100" cy="120" rx="36" ry="46" fill="#808080" stroke="#696969" stroke-width="1"/>
  
  <!-- 胸部 -->
  <ellipse cx="100" cy="105" rx="29" ry="27" fill="#A9A9A9"/>
  
  <!-- 头部 -->
  <circle cx="100" cy="73" r="25" fill="#808080" stroke="#696969" stroke-width="1"/>
  
  <!-- 头顶较浅灰色 -->
  <ellipse cx="100" cy="60" rx="20" ry="10" fill="#A9A9A9"/>
  
  <!-- 面部浅灰色区域 -->
  <ellipse cx="100" cy="78" rx="18" ry="15" fill="#C0C0C0"/>
  
  <!-- 喙 (黑色，较大) -->
  <path d="M100 87 Q90 94 96 100 Q100 97 104 100 Q110 94 100 87" fill="#2F2F2F"/>
  <path d="M100 87 Q95 90 100 93 Q105 90 100 87" fill="#404040"/>
  
  <!-- 眼睛 (黄色虹膜，非洲灰鹦鹉特征) -->
  <circle cx="88" cy="72" r="5" fill="#FFD700"/>
  <circle cx="112" cy="72" r="5" fill="#FFD700"/>
  <circle cx="88" cy="72" r="3" fill="#000"/>
  <circle cx="112" cy="72" r="3" fill="#000"/>
  <circle cx="89" cy="70" r="1" fill="#FFF"/>
  <circle cx="113" cy="70" r="1" fill="#FFF"/>
  
  <!-- 左翅膀 -->
  <ellipse cx="74" cy="118" rx="16" ry="37" fill="#696969" stroke="#555555" stroke-width="1"/>
  <ellipse cx="74" cy="118" rx="11" ry="28" fill="#808080"/>
  <!-- 翅膀羽毛纹理 -->
  <path d="M65 100 Q70 110 65 120 Q70 130 65 140" stroke="#555555" stroke-width="1" fill="none"/>
  <path d="M70 105 Q75 115 70 125 Q75 135 70 145" stroke="#555555" stroke-width="1" fill="none"/>
  
  <!-- 右翅膀 -->
  <ellipse cx="126" cy="118" rx="16" ry="37" fill="#696969" stroke="#555555" stroke-width="1"/>
  <ellipse cx="126" cy="118" rx="11" ry="28" fill="#808080"/>
  <!-- 翅膀羽毛纹理 -->
  <path d="M135 100 Q130 110 135 120 Q130 130 135 140" stroke="#555555" stroke-width="1" fill="none"/>
  <path d="M130 105 Q125 115 130 125 Q125 135 130 145" stroke="#555555" stroke-width="1" fill="none"/>
  
  <!-- 尾巴 (红色，非洲灰鹦鹉的标志性特征) -->
  <ellipse cx="100" cy="166" rx="13" ry="28" fill="#DC143C" stroke="#B22222" stroke-width="1"/>
  <ellipse cx="100" cy="166" rx="9" ry="23" fill="#FF4500"/>
  
  <!-- 腿部 -->
  <rect x="92" y="163" width="3.5" height="16" fill="#2F2F2F"/>
  <rect x="104.5" y="163" width="3.5" height="16" fill="#2F2F2F"/>
  
  <!-- 爪子 -->
  <path d="M90 179 L87 183 M92 179 L89 183 M94 179 L97 183" 
        stroke="#2F2F2F" stroke-width="2" fill="none"/>
  <path d="M102 179 L99 183 M104 179 L101 183 M106 179 L109 183" 
        stroke="#2F2F2F" stroke-width="2" fill="none"/>
        
  <!-- 颈部羽毛纹理 -->
  <path d="M85 95 Q90 98 85 101" stroke="#696969" stroke-width="1" fill="none"/>
  <path d="M115 95 Q110 98 115 101" stroke="#696969" stroke-width="1" fill="none"/>
  <path d="M90 100 Q95 103 90 106" stroke="#696969" stroke-width="1" fill="none"/>
  <path d="M110 100 Q105 103 110 106" stroke="#696969" stroke-width="1" fill="none"/>
  
  <!-- 身体羽毛纹理 -->
  <path d="M80 130 Q85 133 80 136" stroke="#696969" stroke-width="0.5" fill="none"/>
  <path d="M120 130 Q115 133 120 136" stroke="#696969" stroke-width="0.5" fill="none"/>
  <path d="M85 140 Q90 143 85 146" stroke="#696969" stroke-width="0.5" fill="none"/>
  <path d="M115 140 Q110 143 115 146" stroke="#696969" stroke-width="0.5" fill="none"/>
</svg>