<svg width="800" height="500" viewBox="0 0 800 500" fill="none" xmlns="http://www.w3.org/2000/svg">
  <defs>
    <linearGradient id="primary-gradient" x1="0" y1="0" x2="1" y2="1">
      <stop offset="0%" stop-color="#10b981" />
      <stop offset="50%" stop-color="#26A69A" />
      <stop offset="100%" stop-color="#00BCD4" />
    </linearGradient>
    <linearGradient id="bg-gradient" x1="0" y1="0" x2="0" y2="1">
      <stop offset="0%" stop-color="#f8fafc" />
      <stop offset="100%" stop-color="#e2e8f0" />
    </linearGradient>
    <filter id="shadow-lg" x="-50%" y="-50%" width="200%" height="200%">
      <feDropShadow dx="0" dy="10" stdDeviation="15" flood-color="#000000" flood-opacity="0.1"/>
    </filter>
    <filter id="shadow-md" x="-50%" y="-50%" width="200%" height="200%">
      <feDropShadow dx="0" dy="4" stdDeviation="6" flood-color="#000000" flood-opacity="0.08"/>
    </filter>
  </defs>

  <!-- 背景 -->
  <rect width="800" height="500" fill="#f1f5f9" />
  
  <!-- 装饰背景圆 -->
  <circle cx="400" cy="250" r="180" fill="url(#primary-gradient)" opacity="0.05" />
  <circle cx="600" cy="100" r="80" fill="#00BCD4" opacity="0.03" />
  <circle cx="200" cy="400" r="60" fill="#10b981" opacity="0.03" />

  <!-- 浮动元素组 -->
  <g transform="translate(400, 250)">
    
    <!-- 底部卡片 (虚化) -->
    <g transform="translate(-140, -80) rotate(-10)" opacity="0.6">
      <rect x="-100" y="-70" width="200" height="140" rx="16" fill="white" filter="url(#shadow-md)" />
      <rect x="-70" y="-40" width="40" height="40" rx="8" fill="#e2e8f0" />
      <rect x="-10" y="-35" width="100" height="12" rx="6" fill="#e2e8f0" />
      <rect x="-10" y="-10" width="70" height="12" rx="6" fill="#f1f5f9" />
    </g>

    <!-- 右侧卡片 (虚化) -->
    <g transform="translate(130, 40) rotate(8)" opacity="0.7">
      <rect x="-90" y="-60" width="180" height="120" rx="16" fill="white" filter="url(#shadow-md)" />
      <circle cx="-50" cy="0" r="20" fill="#e2e8f0" />
      <rect x="-10" y="-15" width="80" height="12" rx="6" fill="#e2e8f0" />
      <rect x="-10" y="10" width="50" height="12" rx="6" fill="#f1f5f9" />
    </g>

    <!-- 核心卡片 (主视觉) -->
    <g transform="translate(0, 20)">
      <rect x="-110" y="-75" width="220" height="150" rx="20" fill="white" filter="url(#shadow-lg)" />
      
      <!-- 核心内容: 一个代表"新功能"的图标组合 -->
      <rect x="-80" y="-45" width="50" height="50" rx="12" fill="url(#primary-gradient)" opacity="0.1" />
      <path d="M-65 -20 L-55 -20 L-55 -30 M-45 -20 L-55 -20 L-55 -10" stroke="url(#primary-gradient)" stroke-width="3" stroke-linecap="round" stroke-linejoin="round" />
      
      <rect x="-10" y="-40" width="100" height="14" rx="7" fill="#cbd5e1" opacity="0.5" />
      <rect x="-10" y="-15" width="70" height="14" rx="7" fill="#e2e8f0" />
      
      <!-- 列表项示意 -->
      <g transform="translate(-80, 25)">
        <rect width="160" height="10" rx="5" fill="#f1f5f9" />
      </g>
      <g transform="translate(-80, 45)">
        <rect width="140" height="10" rx="5" fill="#f1f5f9" />
      </g>
      
      <!-- "New" Badge -->
      <g transform="translate(90, -60)">
        <circle r="16" fill="#ef4444" />
        <path d="M-6 4 L0 -6 L6 4" stroke="white" stroke-width="2" stroke-linejoin="round" />
      </g>
    </g>

    <!-- 装饰性图标 -->
    <g transform="translate(160, -100)">
      <circle r="25" fill="white" filter="url(#shadow-md)" />
      <path d="M-8 0 L-2 6 L8 -6" stroke="#10b981" stroke-width="3" stroke-linecap="round" stroke-linejoin="round" />
    </g>

    <g transform="translate(-180, 100)">
      <circle r="20" fill="white" filter="url(#shadow-md)" />
      <path d="M-8 -6 L-8 6 L2 0 Z" fill="#00BCD4" />
    </g>
    
  </g>
</svg>